<mxfile host="app.diagrams.net" agent="Mozilla/5.0 (Windows NT 10.0; Win64; x64) AppleWebKit/537.36 (KHTML, like Gecko) Chrome/134.0.0.0 Safari/537.36" version="26.1.0">
  <diagram name="Page-1" id="Icow5BJ0CX73jg3Vsba_">
    <mxGraphModel dx="1372" dy="786" grid="1" gridSize="10" guides="1" tooltips="1" connect="1" arrows="1" fold="1" page="1" pageScale="1" pageWidth="827" pageHeight="1169" background="#0D1117" math="0" shadow="0">
      <root>
        <mxCell id="0" />
        <mxCell id="1" parent="0" />
        <mxCell id="GQBnp_zk71UiDNGDxx9Z-30" style="edgeStyle=orthogonalEdgeStyle;rounded=0;orthogonalLoop=1;jettySize=auto;html=1;exitX=1;exitY=0.5;exitDx=0;exitDy=0;entryX=0;entryY=0.5;entryDx=0;entryDy=0;labelBackgroundColor=none;strokeColor=#E07A5F;fontColor=default;curved=1;" edge="1" parent="1" source="GQBnp_zk71UiDNGDxx9Z-1" target="GQBnp_zk71UiDNGDxx9Z-27">
          <mxGeometry relative="1" as="geometry" />
        </mxCell>
        <mxCell id="GQBnp_zk71UiDNGDxx9Z-1" value="Main.cpp" style="rounded=1;whiteSpace=wrap;html=1;labelBackgroundColor=none;fillColor=#F2CC8F;strokeColor=#E07A5F;fontColor=#393C56;" vertex="1" parent="1">
          <mxGeometry x="110" y="460" width="120" height="60" as="geometry" />
        </mxCell>
        <mxCell id="GQBnp_zk71UiDNGDxx9Z-23" style="edgeStyle=orthogonalEdgeStyle;rounded=0;orthogonalLoop=1;jettySize=auto;html=1;exitX=1;exitY=0.5;exitDx=0;exitDy=0;entryX=0.5;entryY=1;entryDx=0;entryDy=0;labelBackgroundColor=none;strokeColor=#E07A5F;fontColor=default;curved=1;" edge="1" parent="1" source="GQBnp_zk71UiDNGDxx9Z-2" target="GQBnp_zk71UiDNGDxx9Z-22">
          <mxGeometry relative="1" as="geometry" />
        </mxCell>
        <mxCell id="GQBnp_zk71UiDNGDxx9Z-2" value="Symtable.cpp" style="rounded=1;whiteSpace=wrap;html=1;labelBackgroundColor=none;fillColor=#F2CC8F;strokeColor=#E07A5F;fontColor=#393C56;" vertex="1" parent="1">
          <mxGeometry x="110" y="320" width="120" height="60" as="geometry" />
        </mxCell>
        <mxCell id="GQBnp_zk71UiDNGDxx9Z-14" style="edgeStyle=orthogonalEdgeStyle;rounded=0;orthogonalLoop=1;jettySize=auto;html=1;exitX=1;exitY=0.5;exitDx=0;exitDy=0;entryX=0;entryY=0.5;entryDx=0;entryDy=0;labelBackgroundColor=none;strokeColor=#E07A5F;fontColor=default;curved=1;" edge="1" parent="1" source="GQBnp_zk71UiDNGDxx9Z-3" target="GQBnp_zk71UiDNGDxx9Z-12">
          <mxGeometry relative="1" as="geometry" />
        </mxCell>
        <mxCell id="GQBnp_zk71UiDNGDxx9Z-3" value="Scanner.l" style="rounded=1;whiteSpace=wrap;html=1;labelBackgroundColor=none;fillColor=#F2CC8F;strokeColor=#E07A5F;fontColor=#393C56;" vertex="1" parent="1">
          <mxGeometry x="110" y="120" width="120" height="60" as="geometry" />
        </mxCell>
        <mxCell id="GQBnp_zk71UiDNGDxx9Z-18" style="edgeStyle=orthogonalEdgeStyle;rounded=0;orthogonalLoop=1;jettySize=auto;html=1;exitX=1;exitY=0.5;exitDx=0;exitDy=0;labelBackgroundColor=none;strokeColor=#E07A5F;fontColor=default;curved=1;" edge="1" parent="1" source="GQBnp_zk71UiDNGDxx9Z-4" target="GQBnp_zk71UiDNGDxx9Z-16">
          <mxGeometry relative="1" as="geometry" />
        </mxCell>
        <mxCell id="GQBnp_zk71UiDNGDxx9Z-4" value="Parser.y" style="rounded=1;whiteSpace=wrap;html=1;labelBackgroundColor=none;fillColor=#F2CC8F;strokeColor=#E07A5F;fontColor=#393C56;" vertex="1" parent="1">
          <mxGeometry x="110" y="20" width="120" height="60" as="geometry" />
        </mxCell>
        <mxCell id="GQBnp_zk71UiDNGDxx9Z-15" style="edgeStyle=orthogonalEdgeStyle;rounded=0;orthogonalLoop=1;jettySize=auto;html=1;exitX=1;exitY=0.5;exitDx=0;exitDy=0;entryX=0;entryY=0.5;entryDx=0;entryDy=0;labelBackgroundColor=none;strokeColor=#E07A5F;fontColor=default;curved=1;" edge="1" parent="1" source="GQBnp_zk71UiDNGDxx9Z-12" target="GQBnp_zk71UiDNGDxx9Z-13">
          <mxGeometry relative="1" as="geometry" />
        </mxCell>
        <mxCell id="GQBnp_zk71UiDNGDxx9Z-12" value="lex.yy.c" style="rounded=1;whiteSpace=wrap;html=1;labelBackgroundColor=none;fillColor=#F2CC8F;strokeColor=#E07A5F;fontColor=#393C56;" vertex="1" parent="1">
          <mxGeometry x="320" y="120" width="120" height="60" as="geometry" />
        </mxCell>
        <mxCell id="GQBnp_zk71UiDNGDxx9Z-13" value="lex.yy.o" style="rounded=0;whiteSpace=wrap;html=1;labelBackgroundColor=none;fillColor=#F2CC8F;strokeColor=#E07A5F;fontColor=#393C56;" vertex="1" parent="1">
          <mxGeometry x="530" y="120" width="120" height="60" as="geometry" />
        </mxCell>
        <mxCell id="GQBnp_zk71UiDNGDxx9Z-19" style="edgeStyle=orthogonalEdgeStyle;rounded=0;orthogonalLoop=1;jettySize=auto;html=1;exitX=1;exitY=0.5;exitDx=0;exitDy=0;entryX=0;entryY=0.5;entryDx=0;entryDy=0;labelBackgroundColor=none;strokeColor=#E07A5F;fontColor=default;curved=1;" edge="1" parent="1" source="GQBnp_zk71UiDNGDxx9Z-16" target="GQBnp_zk71UiDNGDxx9Z-17">
          <mxGeometry relative="1" as="geometry" />
        </mxCell>
        <mxCell id="GQBnp_zk71UiDNGDxx9Z-35" style="edgeStyle=orthogonalEdgeStyle;rounded=0;orthogonalLoop=1;jettySize=auto;html=1;exitX=0.5;exitY=1;exitDx=0;exitDy=0;entryX=0.5;entryY=0;entryDx=0;entryDy=0;labelBackgroundColor=none;strokeColor=#E07A5F;fontColor=default;curved=1;" edge="1" parent="1" source="GQBnp_zk71UiDNGDxx9Z-16" target="GQBnp_zk71UiDNGDxx9Z-3">
          <mxGeometry relative="1" as="geometry" />
        </mxCell>
        <mxCell id="GQBnp_zk71UiDNGDxx9Z-16" value="parser.tab.h" style="rounded=1;whiteSpace=wrap;html=1;labelBackgroundColor=none;fillColor=#F2CC8F;strokeColor=#E07A5F;fontColor=#393C56;" vertex="1" parent="1">
          <mxGeometry x="320" y="20" width="120" height="60" as="geometry" />
        </mxCell>
        <mxCell id="GQBnp_zk71UiDNGDxx9Z-17" value="parser.tab.o" style="rounded=0;whiteSpace=wrap;html=1;labelBackgroundColor=none;fillColor=#F2CC8F;strokeColor=#E07A5F;fontColor=#393C56;" vertex="1" parent="1">
          <mxGeometry x="530" y="20" width="120" height="60" as="geometry" />
        </mxCell>
        <mxCell id="GQBnp_zk71UiDNGDxx9Z-24" style="edgeStyle=orthogonalEdgeStyle;rounded=0;orthogonalLoop=1;jettySize=auto;html=1;exitX=1;exitY=0.5;exitDx=0;exitDy=0;entryX=0.5;entryY=0;entryDx=0;entryDy=0;labelBackgroundColor=none;strokeColor=#E07A5F;fontColor=default;curved=1;" edge="1" parent="1" source="GQBnp_zk71UiDNGDxx9Z-20" target="GQBnp_zk71UiDNGDxx9Z-22">
          <mxGeometry relative="1" as="geometry" />
        </mxCell>
        <mxCell id="GQBnp_zk71UiDNGDxx9Z-20" value="Symtable.hpp" style="rounded=1;whiteSpace=wrap;html=1;labelBackgroundColor=none;fillColor=#F2CC8F;strokeColor=#E07A5F;fontColor=#393C56;" vertex="1" parent="1">
          <mxGeometry x="110" y="220" width="120" height="60" as="geometry" />
        </mxCell>
        <mxCell id="GQBnp_zk71UiDNGDxx9Z-22" value="symtable.o" style="rounded=0;whiteSpace=wrap;html=1;labelBackgroundColor=none;fillColor=#F2CC8F;strokeColor=#E07A5F;fontColor=#393C56;" vertex="1" parent="1">
          <mxGeometry x="320" y="270" width="120" height="60" as="geometry" />
        </mxCell>
        <mxCell id="GQBnp_zk71UiDNGDxx9Z-31" style="edgeStyle=orthogonalEdgeStyle;rounded=0;orthogonalLoop=1;jettySize=auto;html=1;exitX=1;exitY=0.5;exitDx=0;exitDy=0;entryX=0;entryY=0.5;entryDx=0;entryDy=0;labelBackgroundColor=none;strokeColor=#E07A5F;fontColor=default;curved=1;" edge="1" parent="1" source="GQBnp_zk71UiDNGDxx9Z-27" target="GQBnp_zk71UiDNGDxx9Z-28">
          <mxGeometry relative="1" as="geometry" />
        </mxCell>
        <mxCell id="GQBnp_zk71UiDNGDxx9Z-27" value="lex.yy.o" style="rounded=0;whiteSpace=wrap;html=1;labelBackgroundColor=none;fillColor=#F2CC8F;strokeColor=#E07A5F;fontColor=#393C56;" vertex="1" parent="1">
          <mxGeometry x="270" y="460" width="120" height="60" as="geometry" />
        </mxCell>
        <mxCell id="GQBnp_zk71UiDNGDxx9Z-32" style="edgeStyle=orthogonalEdgeStyle;rounded=0;orthogonalLoop=1;jettySize=auto;html=1;exitX=1;exitY=0.5;exitDx=0;exitDy=0;entryX=0;entryY=0.5;entryDx=0;entryDy=0;labelBackgroundColor=none;strokeColor=#E07A5F;fontColor=default;curved=1;" edge="1" parent="1" source="GQBnp_zk71UiDNGDxx9Z-28" target="GQBnp_zk71UiDNGDxx9Z-29">
          <mxGeometry relative="1" as="geometry" />
        </mxCell>
        <mxCell id="GQBnp_zk71UiDNGDxx9Z-28" value="parser.tab.o" style="rounded=0;whiteSpace=wrap;html=1;labelBackgroundColor=none;fillColor=#F2CC8F;strokeColor=#E07A5F;fontColor=#393C56;" vertex="1" parent="1">
          <mxGeometry x="430" y="460" width="120" height="60" as="geometry" />
        </mxCell>
        <mxCell id="GQBnp_zk71UiDNGDxx9Z-34" style="edgeStyle=orthogonalEdgeStyle;rounded=0;orthogonalLoop=1;jettySize=auto;html=1;exitX=1;exitY=0.5;exitDx=0;exitDy=0;entryX=0.5;entryY=0;entryDx=0;entryDy=0;labelBackgroundColor=none;strokeColor=#E07A5F;fontColor=default;curved=1;" edge="1" parent="1" source="GQBnp_zk71UiDNGDxx9Z-29" target="GQBnp_zk71UiDNGDxx9Z-33">
          <mxGeometry relative="1" as="geometry" />
        </mxCell>
        <mxCell id="GQBnp_zk71UiDNGDxx9Z-29" value="symtable.o" style="rounded=0;whiteSpace=wrap;html=1;labelBackgroundColor=none;fillColor=#F2CC8F;strokeColor=#E07A5F;fontColor=#393C56;" vertex="1" parent="1">
          <mxGeometry x="590" y="460" width="120" height="60" as="geometry" />
        </mxCell>
        <mxCell id="GQBnp_zk71UiDNGDxx9Z-33" value="Syntax Analyser" style="rhombus;whiteSpace=wrap;html=1;labelBackgroundColor=none;fillColor=#F2CC8F;strokeColor=#E07A5F;fontColor=#393C56;" vertex="1" parent="1">
          <mxGeometry x="360" y="585" width="80" height="80" as="geometry" />
        </mxCell>
      </root>
    </mxGraphModel>
  </diagram>
</mxfile>
